<mxfile host="Electron" agent="Mozilla/5.0 (Windows NT 10.0; Win64; x64) AppleWebKit/537.36 (KHTML, like Gecko) draw.io/26.2.2 Chrome/134.0.6998.178 Electron/35.1.2 Safari/537.36" version="26.2.2">
  <diagram name="PÃ¡gina-1" id="FSSnPBEvSAjcDwPLj7r8">
    <mxGraphModel dx="3570" dy="2103" grid="1" gridSize="10" guides="1" tooltips="1" connect="1" arrows="1" fold="1" page="1" pageScale="1" pageWidth="4681" pageHeight="3300" math="0" shadow="0">
      <root>
        <mxCell id="0" />
        <mxCell id="1" parent="0" />
        <mxCell id="qmMIYBZuE9R0lqisoNW8-38" value="" style="endArrow=none;html=1;rounded=0;entryX=0;entryY=0.5;entryDx=0;entryDy=0;entryPerimeter=0;strokeWidth=4;exitX=0.875;exitY=0.5;exitDx=0;exitDy=0;exitPerimeter=0;" parent="1" source="qmMIYBZuE9R0lqisoNW8-2" target="qmMIYBZuE9R0lqisoNW8-5" edge="1">
          <mxGeometry width="50" height="50" relative="1" as="geometry">
            <mxPoint x="2882.108108108108" y="682.0588235294117" as="sourcePoint" />
            <mxPoint x="2657.805405405405" y="1342.205882352941" as="targetPoint" />
          </mxGeometry>
        </mxCell>
        <mxCell id="qmMIYBZuE9R0lqisoNW8-2" value="" style="ellipse;shape=cloud;whiteSpace=wrap;html=1;fillColor=#f8cecc;strokeColor=#b85450;strokeWidth=3;movable=1;resizable=1;rotatable=1;deletable=1;editable=1;locked=0;connectable=1;" parent="1" vertex="1">
          <mxGeometry x="487.29729729729723" y="150" width="2276.7567567567567" height="1005" as="geometry" />
        </mxCell>
        <mxCell id="qmMIYBZuE9R0lqisoNW8-32" value="" style="endArrow=none;html=1;rounded=0;exitX=0.88;exitY=0.1;exitDx=0;exitDy=0;exitPerimeter=0;entryX=0.5;entryY=1;entryDx=0;entryDy=0;entryPerimeter=0;strokeWidth=2;" parent="1" source="qmMIYBZuE9R0lqisoNW8-11" target="qmMIYBZuE9R0lqisoNW8-28" edge="1">
          <mxGeometry width="50" height="50" relative="1" as="geometry">
            <mxPoint x="2187.2756756756753" y="498.7941176470588" as="sourcePoint" />
            <mxPoint x="2475.6648648648647" y="630.8235294117646" as="targetPoint" />
          </mxGeometry>
        </mxCell>
        <mxCell id="qmMIYBZuE9R0lqisoNW8-31" value="" style="endArrow=none;html=1;rounded=0;exitX=1;exitY=0.5;exitDx=0;exitDy=0;exitPerimeter=0;entryX=0.12;entryY=0.1;entryDx=0;entryDy=0;entryPerimeter=0;strokeWidth=2;" parent="1" source="qmMIYBZuE9R0lqisoNW8-10" target="qmMIYBZuE9R0lqisoNW8-28" edge="1">
          <mxGeometry width="50" height="50" relative="1" as="geometry">
            <mxPoint x="2172.097297297297" y="540.1764705882352" as="sourcePoint" />
            <mxPoint x="2273.2864864864864" y="770.7352941176471" as="targetPoint" />
          </mxGeometry>
        </mxCell>
        <mxCell id="qmMIYBZuE9R0lqisoNW8-29" value="" style="endArrow=none;html=1;rounded=0;exitX=0.88;exitY=0.9;exitDx=0;exitDy=0;exitPerimeter=0;entryX=0.12;entryY=0.1;entryDx=0;entryDy=0;entryPerimeter=0;strokeWidth=2;" parent="1" source="qmMIYBZuE9R0lqisoNW8-27" target="qmMIYBZuE9R0lqisoNW8-7" edge="1">
          <mxGeometry width="50" height="50" relative="1" as="geometry">
            <mxPoint x="1126.4756756756756" y="800.2941176470588" as="sourcePoint" />
            <mxPoint x="1177.0702702702702" y="622.9411764705882" as="targetPoint" />
          </mxGeometry>
        </mxCell>
        <mxCell id="qmMIYBZuE9R0lqisoNW8-30" value="" style="endArrow=none;html=1;rounded=0;exitX=0.5;exitY=0;exitDx=0;exitDy=0;exitPerimeter=0;entryX=0;entryY=0.5;entryDx=0;entryDy=0;entryPerimeter=0;strokeWidth=2;" parent="1" source="qmMIYBZuE9R0lqisoNW8-27" target="qmMIYBZuE9R0lqisoNW8-8" edge="1">
          <mxGeometry width="50" height="50" relative="1" as="geometry">
            <mxPoint x="1143.3405405405406" y="820" as="sourcePoint" />
            <mxPoint x="1193.9351351351352" y="642.6470588235293" as="targetPoint" />
          </mxGeometry>
        </mxCell>
        <mxCell id="qmMIYBZuE9R0lqisoNW8-6" value="" style="endArrow=none;html=1;rounded=0;exitX=1;exitY=0.5;exitDx=0;exitDy=0;exitPerimeter=0;entryX=0.16;entryY=0.55;entryDx=0;entryDy=0;entryPerimeter=0;strokeWidth=4;" parent="1" source="qmMIYBZuE9R0lqisoNW8-4" target="qmMIYBZuE9R0lqisoNW8-2" edge="1">
          <mxGeometry width="50" height="50" relative="1" as="geometry">
            <mxPoint x="706.5405405405405" y="879.1176470588234" as="sourcePoint" />
            <mxPoint x="790.8648648648648" y="780.5882352941177" as="targetPoint" />
          </mxGeometry>
        </mxCell>
        <mxCell id="qmMIYBZuE9R0lqisoNW8-21" value="" style="endArrow=none;html=1;rounded=0;exitX=0;exitY=0.5;exitDx=0;exitDy=0;exitPerimeter=0;entryX=1;entryY=0.5;entryDx=0;entryDy=0;entryPerimeter=0;strokeWidth=2;" parent="1" source="qmMIYBZuE9R0lqisoNW8-11" target="qmMIYBZuE9R0lqisoNW8-9" edge="1">
          <mxGeometry width="50" height="50" relative="1" as="geometry">
            <mxPoint x="1225.9783783783785" y="892.9117647058823" as="sourcePoint" />
            <mxPoint x="1465.4594594594594" y="831.8235294117648" as="targetPoint" />
          </mxGeometry>
        </mxCell>
        <mxCell id="qmMIYBZuE9R0lqisoNW8-22" value="" style="endArrow=none;html=1;rounded=0;exitX=0.88;exitY=0.9;exitDx=0;exitDy=0;exitPerimeter=0;entryX=0.5;entryY=0;entryDx=0;entryDy=0;entryPerimeter=0;strokeWidth=2;" parent="1" source="qmMIYBZuE9R0lqisoNW8-10" target="qmMIYBZuE9R0lqisoNW8-11" edge="1">
          <mxGeometry width="50" height="50" relative="1" as="geometry">
            <mxPoint x="1242.8432432432433" y="912.6176470588235" as="sourcePoint" />
            <mxPoint x="1482.3243243243244" y="851.5294117647059" as="targetPoint" />
          </mxGeometry>
        </mxCell>
        <mxCell id="qmMIYBZuE9R0lqisoNW8-23" value="" style="endArrow=none;html=1;rounded=0;exitX=1;exitY=0.5;exitDx=0;exitDy=0;exitPerimeter=0;entryX=0;entryY=0.5;entryDx=0;entryDy=0;entryPerimeter=0;strokeWidth=2;" parent="1" source="qmMIYBZuE9R0lqisoNW8-12" target="qmMIYBZuE9R0lqisoNW8-10" edge="1">
          <mxGeometry width="50" height="50" relative="1" as="geometry">
            <mxPoint x="1259.708108108108" y="932.3235294117646" as="sourcePoint" />
            <mxPoint x="1499.189189189189" y="871.2352941176471" as="targetPoint" />
          </mxGeometry>
        </mxCell>
        <mxCell id="qmMIYBZuE9R0lqisoNW8-19" value="" style="endArrow=none;html=1;rounded=0;exitX=0.88;exitY=0.1;exitDx=0;exitDy=0;exitPerimeter=0;entryX=0;entryY=0.5;entryDx=0;entryDy=0;entryPerimeter=0;strokeWidth=2;" parent="1" source="qmMIYBZuE9R0lqisoNW8-8" target="qmMIYBZuE9R0lqisoNW8-12" edge="1">
          <mxGeometry width="50" height="50" relative="1" as="geometry">
            <mxPoint x="1192.2486486486487" y="853.5" as="sourcePoint" />
            <mxPoint x="1431.7297297297296" y="792.4117647058823" as="targetPoint" />
          </mxGeometry>
        </mxCell>
        <mxCell id="qmMIYBZuE9R0lqisoNW8-25" value="" style="endArrow=none;html=1;rounded=0;exitX=0.88;exitY=0.9;exitDx=0;exitDy=0;exitPerimeter=0;entryX=0.12;entryY=0.1;entryDx=0;entryDy=0;entryPerimeter=0;strokeWidth=2;" parent="1" source="qmMIYBZuE9R0lqisoNW8-12" target="qmMIYBZuE9R0lqisoNW8-9" edge="1">
          <mxGeometry width="50" height="50" relative="1" as="geometry">
            <mxPoint x="1293.4378378378378" y="971.735294117647" as="sourcePoint" />
            <mxPoint x="1532.918918918919" y="910.6470588235294" as="targetPoint" />
          </mxGeometry>
        </mxCell>
        <mxCell id="qmMIYBZuE9R0lqisoNW8-24" value="" style="endArrow=none;html=1;rounded=0;exitX=0.88;exitY=0.1;exitDx=0;exitDy=0;exitPerimeter=0;entryX=0.12;entryY=0.9;entryDx=0;entryDy=0;entryPerimeter=0;strokeWidth=2;" parent="1" source="qmMIYBZuE9R0lqisoNW8-13" target="qmMIYBZuE9R0lqisoNW8-10" edge="1">
          <mxGeometry width="50" height="50" relative="1" as="geometry">
            <mxPoint x="1276.5729729729728" y="952.0294117647059" as="sourcePoint" />
            <mxPoint x="1516.054054054054" y="890.9411764705882" as="targetPoint" />
          </mxGeometry>
        </mxCell>
        <mxCell id="qmMIYBZuE9R0lqisoNW8-20" value="" style="endArrow=none;html=1;rounded=0;exitX=1;exitY=0.5;exitDx=0;exitDy=0;exitPerimeter=0;entryX=0;entryY=0.5;entryDx=0;entryDy=0;entryPerimeter=0;strokeWidth=2;" parent="1" source="qmMIYBZuE9R0lqisoNW8-13" target="qmMIYBZuE9R0lqisoNW8-9" edge="1">
          <mxGeometry width="50" height="50" relative="1" as="geometry">
            <mxPoint x="1209.1135135135135" y="873.2058823529411" as="sourcePoint" />
            <mxPoint x="1448.5945945945946" y="812.1176470588234" as="targetPoint" />
          </mxGeometry>
        </mxCell>
        <mxCell id="qmMIYBZuE9R0lqisoNW8-18" value="" style="endArrow=none;html=1;rounded=0;exitX=1;exitY=0.5;exitDx=0;exitDy=0;exitPerimeter=0;entryX=0;entryY=0.5;entryDx=0;entryDy=0;entryPerimeter=0;strokeWidth=2;" parent="1" source="qmMIYBZuE9R0lqisoNW8-7" target="qmMIYBZuE9R0lqisoNW8-13" edge="1">
          <mxGeometry width="50" height="50" relative="1" as="geometry">
            <mxPoint x="1126.4756756756756" y="800.2941176470588" as="sourcePoint" />
            <mxPoint x="1177.0702702702702" y="622.9411764705882" as="targetPoint" />
          </mxGeometry>
        </mxCell>
        <mxCell id="qmMIYBZuE9R0lqisoNW8-26" value="" style="endArrow=none;html=1;rounded=0;exitX=0.88;exitY=0.9;exitDx=0;exitDy=0;exitPerimeter=0;entryX=0.12;entryY=0.1;entryDx=0;entryDy=0;entryPerimeter=0;strokeWidth=2;" parent="1" source="qmMIYBZuE9R0lqisoNW8-8" target="qmMIYBZuE9R0lqisoNW8-13" edge="1">
          <mxGeometry width="50" height="50" relative="1" as="geometry">
            <mxPoint x="1548.0972972972972" y="751.0294117647059" as="sourcePoint" />
            <mxPoint x="2070.908108108108" y="540.1764705882352" as="targetPoint" />
          </mxGeometry>
        </mxCell>
        <mxCell id="qmMIYBZuE9R0lqisoNW8-17" value="" style="endArrow=none;html=1;rounded=0;exitX=0.5;exitY=0;exitDx=0;exitDy=0;exitPerimeter=0;entryX=0.5;entryY=1;entryDx=0;entryDy=0;entryPerimeter=0;strokeWidth=2;" parent="1" source="qmMIYBZuE9R0lqisoNW8-7" target="qmMIYBZuE9R0lqisoNW8-8" edge="1">
          <mxGeometry width="50" height="50" relative="1" as="geometry">
            <mxPoint x="892.0540540540541" y="1214.1176470588234" as="sourcePoint" />
            <mxPoint x="976.3783783783784" y="1115.5882352941176" as="targetPoint" />
          </mxGeometry>
        </mxCell>
        <mxCell id="qmMIYBZuE9R0lqisoNW8-3" value="" style="shape=mxgraph.cisco.buildings.small_business;sketch=0;html=1;pointerEvents=1;dashed=0;fillColor=#036897;strokeColor=#ffffff;strokeWidth=2;verticalLabelPosition=bottom;verticalAlign=top;align=center;outlineConnect=0;" parent="1" vertex="1">
          <mxGeometry x="2409.8918918918916" y="1253.5294117647059" width="236.10810810810813" height="157.64705882352942" as="geometry" />
        </mxCell>
        <mxCell id="qmMIYBZuE9R0lqisoNW8-4" value="" style="shape=mxgraph.cisco.buildings.generic_building;sketch=0;html=1;pointerEvents=1;dashed=0;fillColor=#036897;strokeColor=#ffffff;strokeWidth=2;verticalLabelPosition=bottom;verticalAlign=top;align=center;outlineConnect=0;" parent="1" vertex="1">
          <mxGeometry x="150" y="466.7720588235294" width="286.7027027027027" height="464.0735294117647" as="geometry" />
        </mxCell>
        <mxCell id="qmMIYBZuE9R0lqisoNW8-5" value="" style="shape=mxgraph.cisco.buildings.branch_office;sketch=0;html=1;pointerEvents=1;dashed=0;fillColor=#036897;strokeColor=#ffffff;strokeWidth=2;verticalLabelPosition=bottom;verticalAlign=top;align=center;outlineConnect=0;" parent="1" vertex="1">
          <mxGeometry x="3084.4864864864862" y="459.875" width="185.51351351351352" height="385.25" as="geometry" />
        </mxCell>
        <mxCell id="qmMIYBZuE9R0lqisoNW8-8" value="" style="shape=mxgraph.cisco.routers.router;sketch=0;html=1;pointerEvents=1;dashed=0;fillColor=#036897;strokeColor=#ffffff;strokeWidth=2;verticalLabelPosition=bottom;verticalAlign=top;align=center;outlineConnect=0;" parent="1" vertex="1">
          <mxGeometry x="1026.972972972973" y="479.0882352941176" width="131.54594594594596" height="104.44117647058823" as="geometry" />
        </mxCell>
        <mxCell id="qmMIYBZuE9R0lqisoNW8-9" value="" style="shape=mxgraph.cisco.routers.router;sketch=0;html=1;pointerEvents=1;dashed=0;fillColor=#036897;strokeColor=#ffffff;strokeWidth=2;verticalLabelPosition=bottom;verticalAlign=top;align=center;outlineConnect=0;" parent="1" vertex="1">
          <mxGeometry x="1836.4864864864865" y="780.5882352941177" width="131.54594594594596" height="104.44117647058823" as="geometry" />
        </mxCell>
        <mxCell id="qmMIYBZuE9R0lqisoNW8-10" value="" style="shape=mxgraph.cisco.routers.router;sketch=0;html=1;pointerEvents=1;dashed=0;fillColor=#036897;strokeColor=#ffffff;strokeWidth=2;verticalLabelPosition=bottom;verticalAlign=top;align=center;outlineConnect=0;" parent="1" vertex="1">
          <mxGeometry x="2038.864864864865" y="425.88235294117646" width="131.54594594594596" height="104.44117647058823" as="geometry" />
        </mxCell>
        <mxCell id="qmMIYBZuE9R0lqisoNW8-11" value="" style="shape=mxgraph.cisco.routers.router;sketch=0;html=1;pointerEvents=1;dashed=0;fillColor=#036897;strokeColor=#ffffff;strokeWidth=2;verticalLabelPosition=bottom;verticalAlign=top;align=center;outlineConnect=0;" parent="1" vertex="1">
          <mxGeometry x="2190.6486486486488" y="751.0294117647059" width="131.54594594594596" height="104.44117647058823" as="geometry" />
        </mxCell>
        <mxCell id="qmMIYBZuE9R0lqisoNW8-12" value="" style="shape=mxgraph.cisco.routers.router;sketch=0;html=1;pointerEvents=1;dashed=0;fillColor=#036897;strokeColor=#ffffff;strokeWidth=2;verticalLabelPosition=bottom;verticalAlign=top;align=center;outlineConnect=0;" parent="1" vertex="1">
          <mxGeometry x="1499.189189189189" y="341.1470588235294" width="131.54594594594596" height="104.44117647058823" as="geometry" />
        </mxCell>
        <mxCell id="qmMIYBZuE9R0lqisoNW8-13" value="" style="shape=mxgraph.cisco.routers.router;sketch=0;html=1;pointerEvents=1;dashed=0;fillColor=#036897;strokeColor=#ffffff;strokeWidth=2;verticalLabelPosition=bottom;verticalAlign=top;align=center;outlineConnect=0;" parent="1" vertex="1">
          <mxGeometry x="1414.8648648648648" y="720.4852941176471" width="131.54594594594596" height="104.44117647058823" as="geometry" />
        </mxCell>
        <mxCell id="qmMIYBZuE9R0lqisoNW8-15" value="&lt;b style=&quot;&quot;&gt;&lt;font style=&quot;font-size: 50px;&quot;&gt;Servicio MPLS&lt;/font&gt;&lt;/b&gt;" style="text;html=1;align=center;verticalAlign=middle;whiteSpace=wrap;rounded=0;" parent="1" vertex="1">
          <mxGeometry x="1540.0005405405404" y="1010.3929411764705" width="354.1621621621622" height="59.11764705882352" as="geometry" />
        </mxCell>
        <mxCell id="qmMIYBZuE9R0lqisoNW8-27" value="" style="shape=mxgraph.cisco.routers.router;sketch=0;html=1;pointerEvents=1;dashed=0;fillColor=#036897;strokeColor=#ffffff;strokeWidth=2;verticalLabelPosition=bottom;verticalAlign=top;align=center;outlineConnect=0;" parent="1" vertex="1">
          <mxGeometry x="774" y="646.5882352941177" width="131.54594594594596" height="104.44117647058823" as="geometry" />
        </mxCell>
        <mxCell id="qmMIYBZuE9R0lqisoNW8-28" value="" style="shape=mxgraph.cisco.routers.router;sketch=0;html=1;pointerEvents=1;dashed=0;fillColor=#036897;strokeColor=#ffffff;strokeWidth=2;verticalLabelPosition=bottom;verticalAlign=top;align=center;outlineConnect=0;" parent="1" vertex="1">
          <mxGeometry x="2426.7567567567567" y="583.5294117647059" width="131.54594594594596" height="104.44117647058823" as="geometry" />
        </mxCell>
        <mxCell id="qmMIYBZuE9R0lqisoNW8-34" value="" style="endArrow=none;html=1;rounded=0;exitX=0.12;exitY=0.1;exitDx=0;exitDy=0;exitPerimeter=0;entryX=0.88;entryY=0.9;entryDx=0;entryDy=0;entryPerimeter=0;strokeWidth=2;" parent="1" source="qmMIYBZuE9R0lqisoNW8-33" target="qmMIYBZuE9R0lqisoNW8-9" edge="1">
          <mxGeometry width="50" height="50" relative="1" as="geometry">
            <mxPoint x="2207.5135135135133" y="823.9411764705882" as="sourcePoint" />
            <mxPoint x="1984.8972972972972" y="853.5" as="targetPoint" />
          </mxGeometry>
        </mxCell>
        <mxCell id="qmMIYBZuE9R0lqisoNW8-35" value="" style="endArrow=none;html=1;rounded=0;exitX=0.88;exitY=0.1;exitDx=0;exitDy=0;exitPerimeter=0;entryX=0.5;entryY=1;entryDx=0;entryDy=0;entryPerimeter=0;strokeWidth=2;" parent="1" source="qmMIYBZuE9R0lqisoNW8-33" target="qmMIYBZuE9R0lqisoNW8-11" edge="1">
          <mxGeometry width="50" height="50" relative="1" as="geometry">
            <mxPoint x="2091.1459459459456" y="1026.9117647058824" as="sourcePoint" />
            <mxPoint x="1969.718918918919" y="894.8823529411764" as="targetPoint" />
          </mxGeometry>
        </mxCell>
        <mxCell id="qmMIYBZuE9R0lqisoNW8-40" value="" style="endArrow=none;html=1;rounded=0;strokeWidth=4;" parent="1" target="qmMIYBZuE9R0lqisoNW8-3" edge="1">
          <mxGeometry width="50" height="50" relative="1" as="geometry">
            <mxPoint x="2140.054054054054" y="1036.7647058823527" as="sourcePoint" />
            <mxPoint x="2674.67027027027" y="1361.9117647058822" as="targetPoint" />
          </mxGeometry>
        </mxCell>
        <mxCell id="qmMIYBZuE9R0lqisoNW8-33" value="" style="shape=mxgraph.cisco.routers.router;sketch=0;html=1;pointerEvents=1;dashed=0;fillColor=#036897;strokeColor=#ffffff;strokeWidth=2;verticalLabelPosition=bottom;verticalAlign=top;align=center;outlineConnect=0;" parent="1" vertex="1">
          <mxGeometry x="2072.5945945945946" y="974.6911764705882" width="131.54594594594596" height="104.44117647058823" as="geometry" />
        </mxCell>
        <mxCell id="qmMIYBZuE9R0lqisoNW8-41" value="&lt;font style=&quot;font-size: 50px;&quot;&gt;&lt;b style=&quot;&quot;&gt;Internet&lt;/b&gt;&lt;/font&gt;" style="ellipse;shape=cloud;whiteSpace=wrap;html=1;rotation=0;fillColor=#dae8fc;strokeColor=#6c8ebf;strokeWidth=2;" parent="1" vertex="1">
          <mxGeometry x="639.081081081081" y="1174.705882352941" width="421.6216216216216" height="315.29411764705884" as="geometry" />
        </mxCell>
        <mxCell id="qmMIYBZuE9R0lqisoNW8-44" value="" style="endArrow=none;html=1;rounded=0;strokeWidth=4;exitX=0.625;exitY=0.2;exitDx=0;exitDy=0;exitPerimeter=0;" parent="1" source="qmMIYBZuE9R0lqisoNW8-41" edge="1">
          <mxGeometry width="50" height="50" relative="1" as="geometry">
            <mxPoint x="2156.918918918919" y="1056.4705882352941" as="sourcePoint" />
            <mxPoint x="1195.6216216216214" y="957.9411764705882" as="targetPoint" />
          </mxGeometry>
        </mxCell>
        <mxCell id="qmMIYBZuE9R0lqisoNW8-7" value="" style="shape=mxgraph.cisco.routers.router;sketch=0;html=1;pointerEvents=1;dashed=0;fillColor=#036897;strokeColor=#ffffff;strokeWidth=2;verticalLabelPosition=bottom;verticalAlign=top;align=center;outlineConnect=0;" parent="1" vertex="1">
          <mxGeometry x="1111.2972972972973" y="892.9117647058823" width="131.54594594594596" height="104.44117647058823" as="geometry" />
        </mxCell>
        <mxCell id="lUcq4Xe9gvfp9c4liqom-1" value="" style="shape=mxgraph.cisco.routers.router;sketch=0;html=1;pointerEvents=1;dashed=0;fillColor=#036897;strokeColor=#ffffff;strokeWidth=2;verticalLabelPosition=bottom;verticalAlign=top;align=center;outlineConnect=0;" parent="1" vertex="1">
          <mxGeometry x="3029.9967567567564" y="593.5294117647059" width="131.54594594594596" height="104.44117647058823" as="geometry" />
        </mxCell>
        <mxCell id="lUcq4Xe9gvfp9c4liqom-2" value="" style="shape=mxgraph.cisco.routers.router;sketch=0;html=1;pointerEvents=1;dashed=0;fillColor=#036897;strokeColor=#ffffff;strokeWidth=2;verticalLabelPosition=bottom;verticalAlign=top;align=center;outlineConnect=0;" parent="1" vertex="1">
          <mxGeometry x="349.99675675675644" y="649.9994117647059" width="131.54594594594596" height="104.44117647058823" as="geometry" />
        </mxCell>
        <mxCell id="lUcq4Xe9gvfp9c4liqom-3" value="&lt;font style=&quot;color: light-dark(rgb(255, 255, 255), rgb(237, 237, 237)); font-size: 20px;&quot;&gt;&lt;b style=&quot;&quot;&gt;CE Router&lt;/b&gt;&lt;/font&gt;" style="text;html=1;align=center;verticalAlign=middle;whiteSpace=wrap;rounded=0;" parent="1" vertex="1">
          <mxGeometry x="3042.15" y="657.97" width="107.23" height="30" as="geometry" />
        </mxCell>
        <mxCell id="lUcq4Xe9gvfp9c4liqom-44" value="&lt;font style=&quot;color: light-dark(rgb(255, 255, 255), rgb(237, 237, 237)); font-size: 20px;&quot;&gt;&lt;b style=&quot;&quot;&gt;CE Router&lt;/b&gt;&lt;/font&gt;" style="text;html=1;align=center;verticalAlign=middle;whiteSpace=wrap;rounded=0;" parent="1" vertex="1">
          <mxGeometry x="362.15" y="720.49" width="107.23" height="19.51" as="geometry" />
        </mxCell>
        <mxCell id="lUcq4Xe9gvfp9c4liqom-45" value="&lt;font color=&quot;#ffffff&quot;&gt;&lt;span style=&quot;font-size: 20px;&quot;&gt;&lt;b&gt;PE Router&lt;/b&gt;&lt;/span&gt;&lt;/font&gt;" style="text;html=1;align=center;verticalAlign=middle;whiteSpace=wrap;rounded=0;" parent="1" vertex="1">
          <mxGeometry x="786.16" y="710.49" width="107.23" height="29.51" as="geometry" />
        </mxCell>
        <mxCell id="lUcq4Xe9gvfp9c4liqom-46" value="&lt;font color=&quot;#ffffff&quot;&gt;&lt;span style=&quot;font-size: 20px;&quot;&gt;&lt;b&gt;PE&lt;/b&gt;&lt;/span&gt;&lt;/font&gt;" style="text;html=1;align=center;verticalAlign=middle;whiteSpace=wrap;rounded=0;" parent="1" vertex="1">
          <mxGeometry x="1123.46" y="960" width="107.23" height="29.51" as="geometry" />
        </mxCell>
        <mxCell id="lUcq4Xe9gvfp9c4liqom-47" value="&lt;font color=&quot;#ffffff&quot;&gt;&lt;span style=&quot;font-size: 20px;&quot;&gt;&lt;b&gt;PE&lt;/b&gt;&lt;/span&gt;&lt;/font&gt;" style="text;html=1;align=center;verticalAlign=middle;whiteSpace=wrap;rounded=0;" parent="1" vertex="1">
          <mxGeometry x="2084.75" y="1040" width="107.23" height="29.51" as="geometry" />
        </mxCell>
        <mxCell id="lUcq4Xe9gvfp9c4liqom-48" value="&lt;font color=&quot;#ffffff&quot;&gt;&lt;span style=&quot;font-size: 20px;&quot;&gt;&lt;b&gt;PE Router&lt;/b&gt;&lt;/span&gt;&lt;/font&gt;" style="text;html=1;align=center;verticalAlign=middle;whiteSpace=wrap;rounded=0;" parent="1" vertex="1">
          <mxGeometry x="2438.91" y="650" width="107.23" height="20" as="geometry" />
        </mxCell>
        <mxCell id="lUcq4Xe9gvfp9c4liqom-49" value="&lt;font color=&quot;#ffffff&quot;&gt;&lt;span style=&quot;font-size: 20px;&quot;&gt;&lt;b&gt;P Router&lt;/b&gt;&lt;/span&gt;&lt;/font&gt;" style="text;html=1;align=center;verticalAlign=middle;whiteSpace=wrap;rounded=0;" parent="1" vertex="1">
          <mxGeometry x="2202.81" y="815.61" width="107.23" height="29.51" as="geometry" />
        </mxCell>
        <mxCell id="lUcq4Xe9gvfp9c4liqom-50" value="&lt;font color=&quot;#ffffff&quot;&gt;&lt;span style=&quot;font-size: 20px;&quot;&gt;&lt;b&gt;P Router&lt;/b&gt;&lt;/span&gt;&lt;/font&gt;" style="text;html=1;align=center;verticalAlign=middle;whiteSpace=wrap;rounded=0;" parent="1" vertex="1">
          <mxGeometry x="1848.6399999999999" y="845.12" width="107.23" height="29.51" as="geometry" />
        </mxCell>
        <mxCell id="lUcq4Xe9gvfp9c4liqom-51" value="&lt;font color=&quot;#ffffff&quot;&gt;&lt;span style=&quot;font-size: 20px;&quot;&gt;&lt;b&gt;P Router&lt;/b&gt;&lt;/span&gt;&lt;/font&gt;" style="text;html=1;align=center;verticalAlign=middle;whiteSpace=wrap;rounded=0;" parent="1" vertex="1">
          <mxGeometry x="2051.02" y="490" width="107.23" height="29.51" as="geometry" />
        </mxCell>
        <mxCell id="lUcq4Xe9gvfp9c4liqom-52" value="&lt;font color=&quot;#ffffff&quot;&gt;&lt;span style=&quot;font-size: 20px;&quot;&gt;&lt;b&gt;P Router&lt;/b&gt;&lt;/span&gt;&lt;/font&gt;" style="text;html=1;align=center;verticalAlign=middle;whiteSpace=wrap;rounded=0;" parent="1" vertex="1">
          <mxGeometry x="1511.35" y="410" width="107.23" height="20" as="geometry" />
        </mxCell>
        <mxCell id="lUcq4Xe9gvfp9c4liqom-53" value="&lt;font color=&quot;#ffffff&quot;&gt;&lt;span style=&quot;font-size: 20px;&quot;&gt;&lt;b&gt;P Router&lt;/b&gt;&lt;/span&gt;&lt;/font&gt;" style="text;html=1;align=center;verticalAlign=middle;whiteSpace=wrap;rounded=0;" parent="1" vertex="1">
          <mxGeometry x="1427.02" y="790" width="107.23" height="20" as="geometry" />
        </mxCell>
        <mxCell id="lUcq4Xe9gvfp9c4liqom-54" value="&lt;font color=&quot;#ffffff&quot;&gt;&lt;span style=&quot;font-size: 20px;&quot;&gt;&lt;b&gt;P Router&lt;/b&gt;&lt;/span&gt;&lt;/font&gt;" style="text;html=1;align=center;verticalAlign=middle;whiteSpace=wrap;rounded=0;" parent="1" vertex="1">
          <mxGeometry x="1039.1299999999999" y="550" width="107.23" height="20" as="geometry" />
        </mxCell>
        <mxCell id="LlJ1fsaSXrjEdqaCvyVe-1" value="" style="shape=mxgraph.cisco.routers.router;sketch=0;html=1;pointerEvents=1;dashed=0;fillColor=#036897;strokeColor=#ffffff;strokeWidth=2;verticalLabelPosition=bottom;verticalAlign=top;align=center;outlineConnect=0;" vertex="1" parent="1">
          <mxGeometry x="2379.9967567567564" y="1229.9994117647059" width="131.54594594594596" height="104.44117647058823" as="geometry" />
        </mxCell>
        <mxCell id="LlJ1fsaSXrjEdqaCvyVe-2" value="&lt;font style=&quot;color: light-dark(rgb(255, 255, 255), rgb(237, 237, 237)); font-size: 20px;&quot;&gt;&lt;b style=&quot;&quot;&gt;CE Router&lt;/b&gt;&lt;/font&gt;" style="text;html=1;align=center;verticalAlign=middle;whiteSpace=wrap;rounded=0;" vertex="1" parent="1">
          <mxGeometry x="2392.15" y="1294.44" width="107.23" height="30" as="geometry" />
        </mxCell>
      </root>
    </mxGraphModel>
  </diagram>
</mxfile>
